<?xml version="1.0" standalone="no"?>
<!DOCTYPE svg PUBLIC "-//W3C//DTD SVG 20010904//EN"
 "http://www.w3.org/TR/2001/REC-SVG-20010904/DTD/svg10.dtd">
<svg version="1.0" xmlns="http://www.w3.org/2000/svg"
 width="2795.000000pt" height="2795.000000pt" viewBox="0 0 2795.000000 2795.000000"
 preserveAspectRatio="xMidYMid meet">
<metadata>
Created by potrace 1.11, written by Peter Selinger 2001-2013
</metadata>
<g transform="translate(0.000000,2795.000000) scale(0.100000,-0.100000)"
fill="#000000" stroke="none">
<path d="M15125 27924 c-399 -41 -840 -141 -1270 -287 -447 -153 -565 -232
-565 -379 0 -50 -34 -62 -163 -55 -62 4 -186 16 -277 28 -276 35 -418 28 -601
-32 -523 -170 -1096 -765 -1551 -1614 -133 -248 -260 -538 -327 -749 -148
-464 -213 -1248 -213 -2581 0 -631 1 -680 17 -690 75 -44 216 -155 294 -230
156 -150 225 -266 257 -430 15 -76 16 -99 5 -188 -25 -193 -25 -206 -7 -226
13 -14 38 -20 104 -25 60 -5 124 -20 205 -46 167 -56 172 -51 189 152 9 97 8
304 -1 797 -19 977 2 1378 101 1886 217 1122 830 1785 1838 1988 260 53 370
62 725 62 l330 0 99 -28 c219 -61 439 -168 703 -342 296 -196 480 -340 1150
-902 172 -144 399 -331 505 -416 859 -688 1363 -915 1841 -831 219 38 330 -58
381 -326 16 -86 23 -169 36 -470 5 -118 15 -235 20 -260 16 -64 39 -108 61
-115 11 -4 117 1 237 10 253 19 241 13 285 143 69 201 64 391 -23 962 -134
869 -326 1656 -561 2303 -476 1308 -1146 2172 -2014 2597 -296 145 -571 228
-923 281 -183 28 -677 35 -887 13z"/>
<path d="M19706 13628 c112 -504 253 -1482 308 -2148 49 -581 49 -1042 0
-1279 -35 -166 -88 -251 -158 -251 -20 0 -79 14 -132 31 -193 62 -828 325
-1369 567 -110 49 -203 87 -206 83 -3 -3 -41 -128 -83 -277 l-78 -270 -77 -28
c-154 -57 -435 -178 -583 -252 -176 -88 -297 -164 -369 -231 -56 -52 -73 -80
-83 -133 -54 -308 -52 -2115 5 -4408 6 -244 9 -445 6 -448 -2 -3 -332 -51
-733 -107 l-729 -102 -5 1480 -5 1480 -604 1680 c-332 924 -608 1691 -612
1703 l-9 24 -38 -22 c-516 -307 -765 -445 -1132 -628 -424 -212 -661 -302
-796 -302 -57 0 -67 3 -100 32 -104 92 -461 711 -807 1404 -462 923 -761 1669
-823 2052 -7 47 -16 87 -19 90 -3 3 -18 -1 -33 -10 -15 -9 -1343 -772 -2952
-1695 -2649 -1521 -2929 -1679 -2961 -1675 -147 17 -366 -281 -582 -790 -382
-902 -791 -2424 -1241 -4618 -118 -575 -194 -975 -211 -1111 -34 -278 -15
-627 50 -873 316 -1208 1726 -1999 4205 -2361 709 -103 1426 -164 2425 -207
399 -17 2088 -17 2555 0 1846 68 3442 190 5465 417 2298 259 5078 677 7350
1105 592 112 617 117 625 129 12 21 112 1307 160 2061 99 1578 140 2756 140
4030 0 907 -13 1380 -55 1975 -97 1359 -322 2171 -651 2346 -27 15 -150 57
-274 94 -704 210 -2268 712 -4109 1319 -376 124 -687 226 -691 226 -3 0 4 -46
16 -102z"/>
</g>
</svg>
